<svg width="89" height="89" viewBox="0 0 89 89" fill="none" xmlns="http://www.w3.org/2000/svg">
<path fill-rule="evenodd" clip-rule="evenodd" d="M44.5 89C69.0767 89 89 69.0767 89 44.5C89 19.9233 69.0767 0 44.5 0C19.9233 0 0 19.9233 0 44.5C0 69.0767 19.9233 89 44.5 89Z" fill="#ED3237"/>
<path d="M52.534 44.088L38.034 34.088C37.8805 33.9825 37.6815 33.9715 37.5175 34.057C37.353 34.1435 37.25 34.3135 37.25 34.4995V54.4995C37.25 54.6855 37.353 54.856 37.5175 54.9425C37.5905 54.9805 37.6705 54.9995 37.75 54.9995C37.8495 54.9995 37.9485 54.9695 38.034 54.911L52.534 44.911C52.6695 44.8175 52.75 44.664 52.75 44.4995C52.75 44.335 52.669 44.1815 52.534 44.088Z" fill="white"/>
</svg>
